<?xml version="1.0" standalone="no"?><svg xmlns="http://www.w3.org/2000/svg" viewBox="0 0 1440 320"><path fill="#8bd4ddcb" fill-opacity="1" d="M0,128L30,117.3C60,107,120,85,180,69.3C240,53,300,43,360,53.3C420,64,480,96,540,122.7C600,149,660,171,720,160C780,149,840,107,900,101.3C960,96,1020,128,1080,138.7C1140,149,1200,139,1260,117.3C1320,96,1380,64,1410,48L1440,32L1440,320L1410,320C1380,320,1320,320,1260,320C1200,320,1140,320,1080,320C1020,320,960,320,900,320C840,320,780,320,720,320C660,320,600,320,540,320C480,320,420,320,360,320C300,320,240,320,180,320C120,320,60,320,30,320L0,320Z"></path></svg>